:SAMPLES-PER-SECOND 30
:FULLY-SPECIFIED
:DEGREES
353
root  -12.6221 40.8344 -11.0249 161.898 -86.1715 -165.413
RightUpLeg  -2.02473 -8.62416 -4.86192
RightLeg  6.01524 -6.78116 3.80303
RightFoot  0.522828 -0.0361495 0.382338
RightToes  0.00048216 0.542163 -0.142577
Spine  -0.531029 -0.730801 0.986345
Spine1  24.4219 -0.121483 -1.24748
HEad  -13.4806 6.92605 7.16418
LeftShoulder1  8.03114 -14.5545 -38.307
LeftArm  -41.7525 20.6655 -25.3977
LeftForeArm  49.3951 -77.4414 -104.617
LeftHand  -0.25398 0.0180481 5.50724
RightShoulder  4.01546 8.14765 28.4673
RightArm  -37.67 -21.9923 45.0285
RightForeArm  45.4513 73.8811 129.364
RightHand  -1.61662 5.55309 -17.4416
LeftUpLeg  1.22283 8.90283 9.24509
LeftLeg  7.83158 8.27136 -0.786527
LeftFoot  -3.81935 0.337242 -4.78053
LeftToes  1.06246e-005 4.65855e-005 -8.18503e-006
354
root  -12.5847 40.828 -11.2167 162.558 -85.9605 -165.569
RightUpLeg  -2.69689 -8.50359 -4.43285
RightLeg  6.0881 -6.84405 3.92905
RightFoot  0.597497 0.0227892 -0.178804
RightToes  0.00048216 0.542163 -0.142577
Spine  -0.193329 -0.869358 1.07297
Spine1  24.4932 -0.306063 -1.15161
HEad  -13.6649 7.44285 7.43061
LeftShoulder1  7.9604 -14.7288 -37.5242
LeftArm  -46.0215 17.6962 -25.5348
LeftForeArm  39.3621 -77.7518 -95.6855
LeftHand  -0.25398 0.0180481 5.50724
RightShoulder  3.89277 8.07265 27.6063
RightArm  -40.1158 -19.8484 44.4668
RightForeArm  39.5668 74.5969 125.877
RightHand  -1.50664 4.98259 -17.113
LeftUpLeg  0.68796 9.01821 9.50449
LeftLeg  7.76232 8.41265 -0.734388
LeftFoot  -3.58008 0.360033 -4.98987
LeftToes  1.06246e-005 4.65855e-005 -8.18503e-006
355
root  -12.5598 40.8305 -11.4129 163.817 -85.7674 -166.071
RightUpLeg  -3.55067 -8.34069 -3.99648
RightLeg  6.02011 -6.9415 4.0604
RightFoot  0.708779 0.073016 -0.645686
RightToes  0.00048216 0.542163 -0.142577
Spine  -0.0173821 -0.990172 0.880723
Spine1  24.4812 -0.655927 -0.62781
HEad  -13.9358 8.0401 7.33646
LeftShoulder1  7.83627 -14.842 -36.6071
LeftArm  -49.5212 16.1306 -25.4242
LeftForeArm  37.4301 -77.73 -94.9892
LeftHand  -0.25398 0.0180481 5.50724
RightShoulder  3.72348 7.84829 26.7523
RightArm  -42.3895 -18.5075 44.2464
RightForeArm  40.3924 74.1718 127.972
RightHand  -1.49143 4.8097 -17.213
LeftUpLeg  0.0319977 9.09423 9.75177
LeftLeg  7.44693 8.62364 -0.835157
LeftFoot  -3.2452 0.387726 -5.20179
LeftToes  1.06246e-005 4.65855e-005 -8.18503e-006
356
root  -12.5483 40.8395 -11.6126 165.357 -85.4958 -166.755
RightUpLeg  -4.42732 -8.10911 -3.52365
RightLeg  5.7982 -7.01581 4.1782
RightFoot  0.85387 0.118048 -1.04982
RightToes  0.00048216 0.542163 -0.142577
Spine  0.185188 -1.11315 0.529261
Spine1  24.1906 -1.11139 0.124915
HEad  -13.9629 8.66885 7.10298
LeftShoulder1  7.61531 -14.7788 -35.5727
LeftArm  -52.8566 15.8079 -25.3595
LeftForeArm  41.4565 -77.6319 -98.8842
LeftHand  -0.25398 0.0180481 5.50724
RightShoulder  3.57166 7.6229 26.0262
RightArm  -44.7209 -17.8058 44.3214
RightForeArm  46.7587 72.9979 132.937
RightHand  -2.18791 8.30255 -18.7764
LeftUpLeg  -0.575809 9.10884 10.0369
LeftLeg  6.92505 8.9762 -1.03243
LeftFoot  -2.8509 0.427848 -5.53106
LeftToes  1.06246e-005 4.65855e-005 -8.18503e-006
357
root  -12.5568 40.8512 -11.8133 166.276 -85.2433 -166.88
RightUpLeg  -5.11845 -7.84365 -3.03204
RightLeg  5.41483 -7.13902 4.29501
RightFoot  1.0359 0.163659 -1.44319
RightToes  0.00048216 0.542163 -0.142577
Spine  0.485807 -1.2524 0.176502
Spine1  23.6741 -1.60282 0.924303
HEad  -13.6734 9.10121 7.03968
LeftShoulder1  7.34263 -14.5794 -34.5444
LeftArm  -55.8038 16.2059 -25.2152
LeftForeArm  47.8645 -77.4028 -104.476
LeftHand  -0.25398 0.0180481 5.50724
RightShoulder  3.47242 7.468 25.5556
RightArm  -46.8547 -17.6641 44.3368
RightForeArm  54.8531 71.4215 138.133
RightHand  -3.40492 13.5276 -21.1456
LeftUpLeg  -1.0339 9.04556 10.3673
LeftLeg  6.29497 9.37244 -1.23864
LeftFoot  -2.42949 0.475634 -5.91423
LeftToes  1.06246e-005 4.65855e-005 -8.18503e-006
358
root  -12.589 40.8622 -12.0099 166.737 -85.092 -166.622
RightUpLeg  -5.63518 -7.59672 -2.57967
RightLeg  4.9603 -7.3242 4.41903
RightFoot  1.20453 0.204105 -1.78106
RightToes  0.00048216 0.542163 -0.142577
Spine  0.661541 -1.36561 -0.158684
Spine1  23.2631 -2.08126 1.78035
HEad  -13.3079 9.28521 7.11677
LeftShoulder1  7.09428 -14.3949 -33.5875
LeftArm  -58.1173 16.8666 -25.0072
LeftForeArm  54.8162 -76.9181 -111.328
LeftHand  -0.25398 0.0180481 5.50724
RightShoulder  3.39371 7.32178 25.2421
RightArm  -48.4782 -17.9091 44.1651
RightForeArm  60.5563 69.5348 142.928
RightHand  -4.00673 15.4829 -22.5061
LeftUpLeg  -1.38501 8.95505 10.6908
LeftLeg  5.63356 9.70359 -1.43566
LeftFoot  -2.00925 0.518141 -6.19835
LeftToes  1.06246e-005 4.65855e-005 -8.18503e-006
